# xmcd CD database file generated by OrangeCD 5.2
#
# Track frame offsets:
#	150
#	10742
#	25482
#	55062
#	78507
#	95727
#	99300
#	125640
#	159825
#	173347
#	193332
#	205587
#	223157
#	238310
#	251822
#
# Disc length: 3577 seconds
#
# Revision: 2
# Processed by: cddbd v1.5.1PL0 Copyright (c) Steve Scherf et al.
# Submitted via: OrangeCD 5.2
#
DISCID=cb0df70f
DTITLE=Jericho Jones - Junkies, Monkeys and Donkeys
DYEAR=1972
DGENRE=
TTITLE0=Mare Tranquilitatas
TTITLE1=Man In The Crowd
TTITLE2=There Is Always A Train
TTITLE3=Yellow And Blue
TTITLE4=Freedom
TTITLE5=Triangulum
TTITLE6=No School Today
TTITLE7=Junkies, Monkeys and Donkeys
TTITLE8=Time Is Now
TTITLE9=What Have We Got To Lose
TTITLE10=Mama's Gonna Take You Home
TTITLE11=So Come On
TTITLE12=Mona Mona
TTITLE13=Champs
TTITLE14=Hey Man
EXTD=
EXTT0=
EXTT1=
EXTT2=
EXTT3=
EXTT4=
EXTT5=
EXTT6=
EXTT7=
EXTT8=
EXTT9=
EXTT10=
EXTT11=
EXTT12=
EXTT13=
EXTT14=
PLAYORDER=
